<svg width="16" height="16" viewBox="0 0 16 16" fill="none" xmlns="http://www.w3.org/2000/svg">
    <path d="M1.29303 5.29296C1.48056 5.10549 1.73487 5.00017 2.00003 5.00017C2.26519 5.00017 2.5195 5.10549 2.70703 5.29296L8.00003 10.586L13.293 5.29296C13.3853 5.19745 13.4956 5.12127 13.6176 5.06886C13.7396 5.01645 13.8709 4.98886 14.0036 4.98771C14.1364 4.98655 14.2681 5.01186 14.391 5.06214C14.5139 5.11242 14.6255 5.18667 14.7194 5.28056C14.8133 5.37446 14.8876 5.48611 14.9379 5.60901C14.9881 5.7319 15.0134 5.86358 15.0123 5.99636C15.0111 6.12914 14.9835 6.26036 14.9311 6.38236C14.8787 6.50437 14.8025 6.61471 14.707 6.70696L9.41403 12C9.03897 12.3749 8.53036 12.5855 8.00003 12.5855C7.4697 12.5855 6.96109 12.3749 6.58603 12L1.29303 6.70696C1.10556 6.51943 1.00024 6.26512 1.00024 5.99996C1.00024 5.73479 1.10556 5.48049 1.29303 5.29296Z" fill="#FF0033"/>
</svg>
